<svg width="175" height="37" viewBox="0 0 175 37" fill="none" xmlns="http://www.w3.org/2000/svg">
<path d="M6.4 2.82001H23.49L22.31 8.37001H11.16L9.61 15.81H19.82L18.69 21.22H8.47L5.98 32.94H0L6.4 2.82001Z" fill="#272932"/>
<path d="M21.51 21.61L24.24 8.85001H29.98L27.06 22.74C26.45 25.47 26.31 27.92 29.13 27.92C31.95 27.92 32.94 26.04 33.74 22.13L36.56 8.86001H42.4L37.27 32.96H34.45L34.17 29.9C32.43 32.07 30.12 33.34 27.25 33.34C21.27 33.34 19.86 29.39 21.51 21.62V21.61Z" fill="#272932"/>
<path d="M48.39 2.82001H55.36L60.44 22.78L64.68 2.82001H70.66L64.26 32.95H57.48L52.21 13.13L48.02 32.95H41.95L48.39 2.82001Z" fill="#272932"/>
<path d="M98.52 2.82001H107.65C115.61 2.82001 117.96 9.13001 115.98 18.26C114.05 27.35 109.06 32.95 101.48 32.95H92.11L98.51 2.82001H98.52ZM101.01 27.58C105.29 27.58 108.54 25.46 110.24 17.37C111.94 9.18001 109.77 8.28001 105.96 8.28001H103.37L99.23 27.58H101.02H101.01Z" fill="#272932"/>
<path d="M118.2 20.38C119.42 14.31 122.81 8.47 128.93 8.47C131.94 8.47 133.83 9.74 135.24 12.33L136.98 8.85H140.04L134.72 32.95H131.9L131.66 29.84C128.98 32.48 127.09 33.32 124.18 33.32C117.35 33.32 116.98 26.12 118.2 20.38ZM131.71 21.09C132.42 17.65 133.26 13.93 129.83 13.84C126.72 13.7 125.03 16.38 124.09 20.95C123.34 24.39 122.87 27.82 126.16 27.96C129.36 28.05 130.73 25.7 131.71 21.09Z" fill="#272932"/>
<path d="M148.61 8.43H142.63L143.81 2.83H161.79L160.61 8.29H154.58L149.31 32.96H143.38L148.61 8.43Z" fill="#272932"/>
<path d="M156.09 20.29C157.27 14.59 160.42 8.47 167.62 8.47C174.82 8.47 176.28 15.06 173.97 23.44H161.35C160.6 27.68 162.95 28.34 163.89 28.34C165.44 28.34 166.76 27.68 167.56 25.66H173.82C171.84 31.5 167.65 33.33 163.42 33.33C155.42 33.33 154.9 26.08 156.08 20.29H156.09ZM169.08 18.5C170.07 14.59 168.19 13.56 166.87 13.56C165.03 13.56 163.2 15.44 162.49 18.5H169.08Z" fill="#272932"/>
<path d="M91.75 0.02L84.33 0L70.75 21.8H83.56L78.25 36.15H84.89L91.59 15.83L81.82 15.89L91.75 0.02Z" fill="#1C74D9"/>
</svg>
