<svg width="112" height="37" viewBox="0 0 112 37" fill="none" xmlns="http://www.w3.org/2000/svg">
<g clip-path="url(#clip0_2_111)">
<path d="M6.4 2.67H23.49L22.31 8.22H11.16L9.61 15.66H19.82L18.69 21.07H8.47L5.98 32.79H0L6.4 2.67Z" fill="#272932"/>
<path d="M25.39 2.67H32.36L37.44 22.63L41.68 2.67H47.66L41.26 32.8H34.48L29.21 12.98L25.02 32.8H18.95L25.39 2.67Z" fill="#272932"/>
<path d="M72.52 2.67H81.65C89.61 2.67 91.96 8.98 89.98 18.11C88.05 27.2 83.06 32.8 75.48 32.8H66.11L72.51 2.67H72.52ZM75.01 27.43C79.29 27.43 82.54 25.31 84.24 17.22C85.94 9.03 83.77 8.13 79.96 8.13H77.37L73.23 27.43H75.02H75.01Z" fill="#272932"/>
<path d="M98.61 8.27999H92.63L93.81 2.67999H111.79L110.61 8.13999H104.58L99.31 32.81H93.38L98.61 8.27999Z" fill="#272932"/>
<path d="M66.55 0L59.12 0.01L45.65 21.88L58.46 21.82L53.23 36.2L59.86 36.16L66.47 15.81L56.69 15.92L66.55 0Z" fill="#1C74D9"/>
</g>
<defs>
<clipPath id="clip0_2_111">
<rect width="111.79" height="36.2" fill="white"/>
</clipPath>
</defs>
</svg>
