<svg width="67" height="37" viewBox="0 0 67 37" fill="none" xmlns="http://www.w3.org/2000/svg">
<g clip-path="url(#clip0_2_107)">
<path d="M6.4 3.67H23.49L22.31 9.22H11.16L9.61 16.66H19.82L18.69 22.07H8.47L5.98 33.79H0L6.4 3.67Z" fill="#272932"/>
<path d="M48.52 3.67H57.65C65.61 3.67 67.96 9.98 65.98 19.11C64.05 28.2 59.06 33.8 51.48 33.8H42.11L48.52 3.67ZM51.01 28.43C55.29 28.43 58.54 26.31 60.24 18.22C61.94 10.03 59.77 9.13 55.96 9.13H53.37L49.23 28.43H51.02H51.01Z" fill="#272932"/>
<path d="M42.55 0L35.12 0.01L21.65 21.88L34.46 21.82L29.23 36.2L35.86 36.16L42.47 15.81L32.69 15.92L42.55 0Z" fill="#1C74D9"/>
</g>
<defs>
<clipPath id="clip0_2_107">
<rect width="66.65" height="36.2" fill="white"/>
</clipPath>
</defs>
</svg>
